<?xml version="1.0" standalone="no"?>
<!DOCTYPE svg PUBLIC "-//W3C//DTD SVG 20010904//EN"
 "http://www.w3.org/TR/2001/REC-SVG-20010904/DTD/svg10.dtd">
<svg version="1.0" xmlns="http://www.w3.org/2000/svg"
 width="300.000000pt" height="300.000000pt" viewBox="0 0 300.000000 300.000000"
 preserveAspectRatio="xMidYMid meet">
<metadata>
Created by potrace 1.11, written by Peter Selinger 2001-2013
</metadata>
<g transform="translate(0.000000,300.000000) scale(0.100000,-0.100000)"
fill="#000000" stroke="none">
<path d="M1212 2661 c-15 -9 -15 -103 -1 -153 11 -38 -4 -35 -26 6 -15 28 -22
32 -43 27 -45 -12 -50 -36 -17 -71 32 -34 28 -37 -16 -15 -16 9 -53 18 -83 21
-48 5 -54 3 -59 -15 -6 -24 -2 -28 88 -75 79 -40 137 -91 184 -160 36 -52 35
-71 -5 -86 -23 -9 -25 -14 -20 -44 6 -32 4 -35 -39 -60 -24 -15 -57 -38 -72
-52 -15 -14 -32 -29 -38 -32 -43 -28 -127 -168 -139 -233 -4 -23 -17 -43 -37
-58 -36 -26 -61 -80 -55 -115 6 -33 35 -76 51 -76 12 0 16 -12 30 -113 9 -66
36 -189 62 -282 13 -49 38 -144 55 -210 23 -94 36 -126 58 -149 27 -28 27 -29
9 -47 -11 -11 -19 -27 -19 -37 0 -10 -7 -19 -15 -19 -20 0 -147 -54 -163 -70
-17 -17 -16 -17 -67 13 -25 14 -49 23 -54 20 -5 -3 -11 -1 -13 6 -5 15 -182
20 -218 6 -14 -5 -36 -12 -50 -15 -61 -11 -220 -121 -220 -152 0 -6 -4 -11 -8
-11 -13 0 -70 -121 -82 -172 -13 -56 -13 -153 1 -200 l10 -38 1399 0 1400 0 0
268 c0 147 -4 272 -8 277 -7 10 -99 57 -137 70 -85 30 -211 39 -295 21 -60
-13 -178 -77 -225 -123 -25 -24 -45 -37 -45 -29 0 19 -48 122 -63 134 -23 19
-82 49 -112 57 -53 14 -60 16 -82 17 -13 0 -23 6 -23 14 0 17 -39 58 -64 67
-15 6 -16 10 -6 22 9 11 11 46 6 133 -3 64 -9 130 -11 146 -3 15 -8 69 -10
120 -2 50 -5 91 -5 91 -1 0 -3 29 -5 65 -15 258 -21 307 -50 425 -46 181 -167
317 -304 340 -31 5 -45 13 -51 30 -7 18 -18 24 -47 27 -37 3 -38 4 -35 38 2
19 6 43 8 55 3 11 7 31 10 45 2 14 20 57 39 95 26 55 43 76 78 98 43 28 48 39
33 84 -10 30 -32 36 -71 17 -41 -19 -56 -36 -90 -102 -15 -29 -31 -55 -37 -58
-13 -8 0 58 23 119 17 47 17 49 -2 68 -10 10 -25 19 -31 19 -31 0 -86 -120
-75 -162 3 -11 1 -18 -6 -15 -6 2 -11 12 -12 23 -2 10 -6 42 -10 69 -4 28 -8
57 -8 65 0 34 -35 51 -65 31z"/>
</g>
</svg>
